<svg width="788" height="169" viewBox="0 0 788 169" fill="none" xmlns="http://www.w3.org/2000/svg">
<path d="M611.946 139.304C608.896 139.304 606.552 138.683 604.914 137.44C603.333 136.198 602.542 134.531 602.542 132.441C602.542 130.295 603.361 128.629 604.999 127.443C606.693 126.2 609.009 125.579 611.946 125.579C614.771 125.579 617.03 126.2 618.725 127.443C620.476 128.629 621.351 130.295 621.351 132.441C621.351 134.588 620.532 136.254 618.894 137.44C617.256 138.683 614.94 139.304 611.946 139.304Z" fill="#F9FAFF"/>
<path d="M639.825 135.492C634.685 133.91 630.59 130.973 627.54 126.68C624.489 122.387 622.964 117.586 622.964 112.277C622.964 108.662 623.642 105.272 624.998 102.109C627.201 96.9693 630.646 92.9871 635.334 90.1629C640.079 87.2822 645.219 85.8418 650.755 85.8418C654.596 85.8418 658.295 86.5761 661.854 88.0447C663.661 88.892 665.045 89.6545 666.005 90.3323C667.022 91.0101 667.7 91.9704 668.039 93.213C668.095 93.4955 668.124 93.9191 668.124 94.4839C668.124 95.8961 667.728 97.2799 666.937 98.6355C666.203 99.9912 665.243 100.923 664.057 101.432C663.096 101.883 661.995 102.109 660.752 102.109C660.018 102.109 658.747 101.94 656.94 101.601C655.358 101.206 653.946 101.008 652.703 101.008C650.5 101.008 648.495 101.657 646.688 102.957C645.05 104.143 643.779 105.696 642.875 107.617C642.028 109.537 641.604 111.542 641.604 113.632C641.604 115.835 642.113 117.84 643.129 119.648C644.824 122.641 647.366 124.138 650.755 124.138C652.562 124.138 655.245 123.602 658.804 122.528C660.159 121.964 661.43 121.681 662.616 121.681C663.69 121.681 664.622 121.992 665.412 122.613C666.203 123.235 666.994 124.223 667.785 125.579C668.293 126.426 668.547 127.386 668.547 128.459C668.547 129.363 668.321 130.267 667.869 131.171C667.474 132.018 666.881 132.78 666.09 133.458C662.871 136 658.211 137.271 652.11 137.271C647.761 137.271 643.666 136.678 639.825 135.492Z" fill="#F9FAFF"/>
<path d="M680.839 137.101C676.151 135.124 672.621 132.046 670.249 127.866C667.876 123.686 666.69 119.055 666.69 113.971C666.69 109.452 667.594 105.131 669.401 101.008C671.265 96.8845 673.892 93.5519 677.281 91.0101C680.726 88.4683 684.709 87.1974 689.227 87.1974C692.447 87.1974 695.723 87.847 699.056 89.1462C704.083 91.2361 707.867 94.4839 710.409 98.8897C713.007 103.296 714.306 108.125 714.306 113.378C714.306 116.202 713.911 119.026 713.12 121.851C712.16 125.014 710.55 127.923 708.291 130.577C706.031 133.176 703.32 135.237 700.157 136.763C696.994 138.288 693.661 139.05 690.159 139.05C686.94 139.05 683.833 138.401 680.839 137.101ZM696.344 122.359C697.531 121.116 698.406 119.62 698.971 117.868C699.592 116.117 699.903 114.282 699.903 112.361C699.903 110.61 699.677 108.887 699.225 107.193C698.83 105.498 697.954 103.86 696.599 102.279C695.243 100.697 693.746 99.9064 692.108 99.9064C690.865 99.9064 689.679 100.443 688.549 101.516C687.137 102.815 686.092 104.482 685.415 106.515C684.793 108.549 684.483 110.695 684.483 112.954C684.483 114.366 684.624 115.835 684.906 117.36C685.302 119.281 686.121 120.975 687.363 122.444C688.662 123.856 690.131 124.562 691.769 124.562C693.294 124.562 694.819 123.828 696.344 122.359Z" fill="#F9FAFF"/>
<path d="M722.084 136.339C720.051 135.944 718.498 135.379 717.424 134.644C716.408 133.91 715.786 132.809 715.56 131.34C715.391 130.323 715.306 127.838 715.306 123.884V115.327C715.306 110.3 715.278 106.176 715.221 102.957L715.137 98.2119C715.08 97.4211 715.052 96.3479 715.052 94.9923C715.052 93.2978 715.193 91.9139 715.476 90.8407C715.758 89.711 716.295 88.7508 717.085 87.96C717.82 87.2257 718.893 86.6891 720.305 86.3502C721.774 85.9548 723.383 85.7571 725.134 85.7571C727.394 85.7571 729.371 86.0678 731.065 86.6891C732.816 87.3104 733.805 88.1859 734.031 89.3156C735.612 88.1859 736.911 87.4516 737.928 87.1127C739.001 86.7738 740.583 86.6044 742.673 86.6044C747.756 86.6044 751.654 87.7341 754.365 89.9934C756.342 88.4684 758.347 87.2822 760.381 86.4349C762.414 85.5312 765.238 85.0793 768.853 85.0793C776.874 85.0793 782.099 87.9882 784.528 93.8061C785.714 96.6868 786.533 100.387 786.985 104.905C787.493 109.424 787.747 114.762 787.747 120.919C787.747 123.743 787.606 125.861 787.324 127.273C787.098 128.629 786.42 129.815 785.29 130.832C784.669 131.397 783.85 131.848 782.833 132.187C781.873 132.526 780.856 132.696 779.783 132.696C778.597 132.696 777.467 132.498 776.394 132.103C775.377 131.707 774.53 131.114 773.852 130.323C773.118 129.533 772.61 128.742 772.327 127.951C772.101 127.16 771.988 126.115 771.988 124.816L772.073 121.003C772.073 117.445 771.819 113.434 771.31 108.972C771.085 106.769 770.604 105.103 769.87 103.973C769.192 102.787 768.345 102.194 767.328 102.194C765.238 102.194 763.742 103.296 762.838 105.498C761.934 107.645 761.482 111.203 761.482 116.174C761.539 117.53 761.567 119.62 761.567 122.444C761.567 125.268 761.426 127.386 761.143 128.798C760.917 130.154 760.24 131.34 759.11 132.357C758.489 132.922 757.669 133.373 756.653 133.712C755.693 134.051 754.676 134.221 753.603 134.221C752.416 134.221 751.287 134.023 750.214 133.628C749.197 133.232 748.35 132.639 747.672 131.848C746.937 131.058 746.429 130.267 746.147 129.476C745.921 128.685 745.808 127.64 745.808 126.341L745.893 122.528C745.893 118.97 745.638 114.96 745.13 110.497C744.904 108.294 744.424 106.628 743.69 105.498C743.012 104.312 742.165 103.719 741.148 103.719C739.058 103.719 737.561 104.821 736.657 107.023C735.754 109.226 735.302 112.841 735.302 117.868C735.302 121.766 735.189 124.731 734.963 126.765C734.793 128.742 734.454 130.323 733.946 131.509C733.268 133.148 732.11 134.418 730.472 135.322C728.834 136.169 726.97 136.593 724.88 136.593C723.977 136.593 723.045 136.508 722.084 136.339Z" fill="#F9FAFF"/>
<path d="M63.6297 142.901C41.8512 145.079 16.5546 138.545 4.32507 121.29C-1.20333 113.081 -2.54355 99.0086 7.0055 92.9776C18.5649 85.774 26.7737 90.1297 33.9774 96.8307C42.8563 102.527 52.7404 110.4 60.4467 100.181C66.4777 89.4595 49.8925 84.4337 43.694 81.0832C23.7582 70.864 4.82765 66.5083 4.82765 40.5416C5.16271 15.4125 25.7686 0.837636 52.7404 0C76.1942 0.502582 97.4702 8.04131 106.852 27.642C111.878 36.5209 107.522 47.5777 96.9676 49.9231C76.0267 56.4567 57.0961 21.7785 46.0393 40.5416C41.6836 49.5881 58.9389 54.2788 64.6349 57.1268C86.7485 66.1733 108.192 78.5703 107.354 101.354C106.517 127.656 85.5758 140.723 63.6297 142.901Z" fill="#F9FAFF"/>
<path d="M120.535 130.504C112.997 128.996 108.473 126.651 107.636 120.62C106.631 113.751 107.468 98.8411 106.966 64.498C106.798 49.0855 104.955 40.3741 110.651 34.8457C117.687 27.9771 142.481 29.3173 144.157 37.5261C150.188 33.1704 152.701 32.1652 161.244 32.1652C172.301 32.1652 186.206 34.8457 192.237 49.4205C197.263 61.4825 198.603 81.0832 198.603 103.029C198.603 112.411 198.603 118.107 193.745 122.63C188.551 127.488 176.489 127.991 171.129 121.625C166.605 116.766 167.611 113.081 167.611 103.197C167.611 95.323 167.108 88.2869 166.103 79.4079C165.098 70.529 162.082 66.0057 158.229 66.0057C149.853 66.0057 146.67 74.2146 146.67 93.9828C146.67 109.898 145.832 116.431 143.989 120.955C140.639 129.164 130.419 132.514 120.535 130.504Z" fill="#F9FAFF"/>
<path d="M235.72 132.179C224.664 132.179 210.759 129.499 204.728 114.924C199.702 102.862 198.362 83.261 198.362 61.315C198.362 48.2479 198.362 42.5519 203.22 38.0287C208.413 33.1704 228.349 32.6678 233.71 39.0338C238.233 43.8921 237.228 47.5777 237.228 61.1474C237.228 69.0212 237.731 76.0574 238.736 84.9363C239.741 93.8153 242.757 98.3385 246.61 98.3385C254.986 98.3385 253.311 90.1297 253.311 70.3614C253.311 54.4464 254.148 47.9128 255.991 43.3896C259.342 35.1807 269.561 31.8302 276.429 33.8405C283.801 36.0184 288.491 37.6936 289.329 43.7246C290.334 50.5932 289.664 65.5032 289.999 99.8462C290.167 115.259 292.01 123.97 286.314 129.499C279.277 136.367 254.483 135.027 252.808 126.818C246.777 131.174 244.264 132.179 235.72 132.179Z" fill="#F9FAFF"/>
<path d="M307.476 156.47C295.916 136.2 309.654 127.823 316.522 126.986C328.417 125.478 326.741 145.749 339.306 137.54C344.499 134.189 348.687 128.158 348.687 119.614C348.687 118.777 348.185 118.274 347.515 118.274C340.479 118.274 336.625 119.95 321.883 119.112C312.166 118.609 282.849 105.04 289.383 75.3873C295.581 47.0752 309.654 24.794 346.342 34.3431C349.19 22.2811 373.314 22.4487 379.345 31.8302C384.371 39.704 392.412 53.1061 385.878 120.117C378.34 184.783 320.04 171.883 307.476 156.47ZM330.092 90.9673C342.991 92.8101 349.525 90.7998 349.19 86.4441L347.85 66.5083C347.515 61.9851 338.468 61.315 328.417 64.6655C317.36 68.3511 315.852 88.957 330.092 90.9673Z" fill="#F9FAFF"/>
<path d="M402.102 156.47C390.542 136.2 404.28 127.823 411.148 126.986C423.043 125.478 421.367 145.749 433.932 137.54C439.125 134.189 443.313 128.158 443.313 119.614C443.313 118.777 442.811 118.274 442.141 118.274C435.105 118.274 431.251 119.95 416.509 119.112C406.792 118.609 377.475 105.04 384.009 75.3873C390.207 47.0752 404.28 24.794 440.968 34.3431C443.816 22.2811 467.94 22.4487 473.971 31.8302C478.997 39.704 487.038 53.1061 480.504 120.117C472.966 184.783 414.666 171.883 402.102 156.47ZM424.718 90.9673C437.618 92.8101 444.151 90.7998 443.816 86.4441L442.476 66.5083C442.141 61.9851 433.094 61.315 423.043 64.6655C411.986 68.3511 410.478 88.957 424.718 90.9673Z" fill="#F9FAFF"/>
<path d="M532.049 138.21C508.093 138.21 484.304 129.164 483.634 84.2662C483.466 73.5445 484.137 55.619 485.644 23.9564C485.812 20.2708 485.309 16.5852 485.979 13.4022C486.984 8.71142 490.67 5.86345 494.858 4.69076C501.894 2.68044 515.129 1.67527 518.815 8.71142C520.825 12.5645 519.987 19.7682 519.652 29.8198C517.474 82.2559 514.459 109.228 534.562 109.228C544.279 109.228 543.944 138.21 532.049 138.21Z" fill="#F9FAFF"/>
<path d="M571.827 136.032C555.074 137.875 535.474 132.849 526.092 119.447C521.904 113.081 520.731 102.192 528.102 97.5009C537.149 91.9725 543.347 95.323 548.876 100.516C555.912 104.872 563.618 111.071 569.314 103.029C574.172 94.8204 561.44 90.9673 556.414 88.4544C541.002 80.4131 526.427 77.0625 526.427 56.9593C526.762 37.5261 542.677 26.3018 563.618 25.6317C581.711 26.1343 597.961 31.9977 605.332 47.0752C609.186 53.9438 605.835 62.4877 597.626 64.3305C581.544 69.3563 566.801 42.3844 558.425 56.9593C554.907 63.9954 568.309 67.681 572.665 69.8589C589.752 76.7275 606.338 86.2765 605.667 104.034C605.165 124.305 588.915 134.524 571.827 136.032Z" fill="#F9FAFF"/>
</svg>
